<svg xmlns="http://www.w3.org/2000/svg" xmlns:xlink="http://www.w3.org/1999/xlink" width="500" zoomAndPan="magnify" viewBox="0 0 375 374.999991" height="500" preserveAspectRatio="xMidYMid meet" version="1.0"><defs><clipPath id="f428043470"><path d="M 0.140625 0.140625 L 368.378906 0.140625 L 368.378906 368.378906 L 0.140625 368.378906 Z M 0.140625 0.140625 " clip-rule="nonzero"/></clipPath><clipPath id="ff50d332cc"><path d="M 99.207031 0.140625 L 269.3125 0.140625 C 270.933594 0.140625 272.554688 0.179688 274.175781 0.261719 C 275.792969 0.339844 277.410156 0.457031 279.023438 0.617188 C 280.636719 0.777344 282.246094 0.976562 283.847656 1.214844 C 285.453125 1.449219 287.050781 1.726562 288.640625 2.042969 C 290.230469 2.359375 291.8125 2.714844 293.382812 3.109375 C 294.957031 3.503906 296.519531 3.9375 298.070312 4.40625 C 299.621094 4.878906 301.160156 5.386719 302.6875 5.933594 C 304.214844 6.476562 305.726562 7.0625 307.222656 7.683594 C 308.722656 8.300781 310.203125 8.957031 311.667969 9.652344 C 313.136719 10.34375 314.582031 11.074219 316.011719 11.839844 C 317.441406 12.601562 318.851562 13.402344 320.242188 14.234375 C 321.632812 15.070312 323.003906 15.9375 324.351562 16.835938 C 325.699219 17.738281 327.023438 18.671875 328.328125 19.636719 C 329.628906 20.601562 330.90625 21.597656 332.160156 22.628906 C 333.414062 23.65625 334.640625 24.714844 335.84375 25.804688 C 337.042969 26.890625 338.21875 28.011719 339.363281 29.15625 C 340.511719 30.304688 341.628906 31.476562 342.714844 32.679688 C 343.804688 33.878906 344.863281 35.105469 345.890625 36.359375 C 346.921875 37.613281 347.917969 38.890625 348.882812 40.191406 C 349.847656 41.496094 350.78125 42.820312 351.683594 44.167969 C 352.585938 45.515625 353.453125 46.886719 354.285156 48.277344 C 355.117188 49.667969 355.917969 51.078125 356.679688 52.507812 C 357.445312 53.9375 358.175781 55.382812 358.867188 56.851562 C 359.5625 58.316406 360.21875 59.796875 360.839844 61.296875 C 361.457031 62.792969 362.042969 64.304688 362.589844 65.832031 C 363.132812 67.359375 363.644531 68.898438 364.113281 70.449219 C 364.582031 72 365.015625 73.5625 365.410156 75.136719 C 365.804688 76.707031 366.160156 78.289062 366.476562 79.878906 C 366.792969 81.46875 367.070312 83.066406 367.308594 84.671875 C 367.542969 86.273438 367.742188 87.882812 367.902344 89.496094 C 368.0625 91.109375 368.179688 92.726562 368.257812 94.34375 C 368.339844 95.964844 368.378906 97.585938 368.378906 99.207031 L 368.378906 269.3125 C 368.378906 270.933594 368.339844 272.554688 368.261719 274.175781 C 368.179688 275.792969 368.0625 277.410156 367.902344 279.023438 C 367.742188 280.636719 367.542969 282.246094 367.308594 283.847656 C 367.070312 285.453125 366.792969 287.050781 366.476562 288.640625 C 366.160156 290.230469 365.804688 291.8125 365.410156 293.382812 C 365.015625 294.957031 364.582031 296.519531 364.113281 298.070312 C 363.644531 299.621094 363.132812 301.160156 362.589844 302.6875 C 362.042969 304.214844 361.457031 305.726562 360.839844 307.222656 C 360.21875 308.722656 359.5625 310.203125 358.867188 311.667969 C 358.175781 313.136719 357.445312 314.582031 356.679688 316.011719 C 355.917969 317.441406 355.117188 318.851562 354.285156 320.242188 C 353.453125 321.632812 352.585938 323.003906 351.683594 324.351562 C 350.78125 325.699219 349.847656 327.023438 348.882812 328.328125 C 347.917969 329.628906 346.921875 330.90625 345.890625 332.160156 C 344.863281 333.414062 343.804688 334.640625 342.714844 335.84375 C 341.628906 337.042969 340.511719 338.21875 339.363281 339.363281 C 338.21875 340.511719 337.042969 341.628906 335.84375 342.714844 C 334.640625 343.804688 333.414062 344.863281 332.160156 345.890625 C 330.90625 346.921875 329.628906 347.917969 328.328125 348.882812 C 327.023438 349.847656 325.699219 350.78125 324.351562 351.683594 C 323.003906 352.585938 321.632812 353.453125 320.242188 354.285156 C 318.851562 355.117188 317.441406 355.917969 316.011719 356.679688 C 314.582031 357.445312 313.136719 358.175781 311.667969 358.867188 C 310.203125 359.5625 308.722656 360.21875 307.222656 360.839844 C 305.726562 361.457031 304.214844 362.042969 302.6875 362.589844 C 301.160156 363.132812 299.621094 363.644531 298.070312 364.113281 C 296.519531 364.582031 294.957031 365.015625 293.382812 365.410156 C 291.8125 365.804688 290.230469 366.160156 288.640625 366.476562 C 287.050781 366.792969 285.453125 367.070312 283.847656 367.308594 C 282.246094 367.542969 280.636719 367.742188 279.023438 367.902344 C 277.410156 368.0625 275.792969 368.179688 274.175781 368.257812 C 272.554688 368.339844 270.933594 368.378906 269.3125 368.378906 L 99.207031 368.378906 C 97.585938 368.378906 95.964844 368.339844 94.34375 368.257812 C 92.726562 368.179688 91.109375 368.0625 89.496094 367.902344 C 87.882812 367.742188 86.273438 367.542969 84.671875 367.308594 C 83.066406 367.070312 81.46875 366.792969 79.878906 366.476562 C 78.289062 366.160156 76.707031 365.804688 75.136719 365.410156 C 73.5625 365.015625 72 364.582031 70.449219 364.113281 C 68.898438 363.644531 67.359375 363.132812 65.832031 362.589844 C 64.304688 362.042969 62.792969 361.457031 61.296875 360.839844 C 59.796875 360.21875 58.316406 359.5625 56.851562 358.867188 C 55.382812 358.175781 53.9375 357.445312 52.507812 356.679688 C 51.078125 355.917969 49.667969 355.117188 48.277344 354.285156 C 46.886719 353.453125 45.515625 352.585938 44.167969 351.683594 C 42.820312 350.78125 41.496094 349.847656 40.191406 348.882812 C 38.890625 347.917969 37.613281 346.921875 36.359375 345.890625 C 35.105469 344.863281 33.878906 343.804688 32.679688 342.714844 C 31.476562 341.628906 30.304688 340.511719 29.15625 339.363281 C 28.011719 338.21875 26.890625 337.042969 25.804688 335.84375 C 24.714844 334.640625 23.65625 333.414062 22.628906 332.160156 C 21.597656 330.90625 20.601562 329.628906 19.636719 328.328125 C 18.671875 327.023438 17.738281 325.699219 16.835938 324.351562 C 15.9375 323.003906 15.070312 321.632812 14.234375 320.242188 C 13.402344 318.851562 12.601562 317.441406 11.839844 316.011719 C 11.074219 314.582031 10.34375 313.136719 9.652344 311.667969 C 8.957031 310.203125 8.300781 308.722656 7.683594 307.222656 C 7.0625 305.726562 6.476562 304.214844 5.933594 302.6875 C 5.386719 301.160156 4.878906 299.621094 4.40625 298.070312 C 3.9375 296.519531 3.503906 294.957031 3.109375 293.382812 C 2.714844 291.8125 2.359375 290.230469 2.042969 288.640625 C 1.726562 287.050781 1.449219 285.453125 1.214844 283.847656 C 0.976562 282.246094 0.777344 280.636719 0.617188 279.023438 C 0.457031 277.410156 0.339844 275.792969 0.261719 274.175781 C 0.179688 272.554688 0.140625 270.933594 0.140625 269.3125 L 0.140625 99.207031 C 0.140625 97.585938 0.179688 95.964844 0.261719 94.34375 C 0.339844 92.726562 0.457031 91.109375 0.617188 89.496094 C 0.777344 87.882812 0.976562 86.273438 1.214844 84.671875 C 1.449219 83.066406 1.726562 81.46875 2.042969 79.878906 C 2.359375 78.289062 2.714844 76.707031 3.109375 75.136719 C 3.503906 73.5625 3.9375 72 4.40625 70.449219 C 4.878906 68.898438 5.386719 67.359375 5.933594 65.832031 C 6.476562 64.304688 7.0625 62.792969 7.683594 61.296875 C 8.300781 59.796875 8.957031 58.316406 9.652344 56.851562 C 10.34375 55.382812 11.074219 53.9375 11.839844 52.507812 C 12.601562 51.078125 13.402344 49.667969 14.234375 48.277344 C 15.070312 46.886719 15.9375 45.515625 16.835938 44.167969 C 17.738281 42.820312 18.671875 41.496094 19.636719 40.191406 C 20.601562 38.890625 21.597656 37.613281 22.628906 36.359375 C 23.65625 35.105469 24.714844 33.878906 25.804688 32.679688 C 26.890625 31.476562 28.011719 30.304688 29.15625 29.15625 C 30.304688 28.011719 31.476562 26.890625 32.679688 25.804688 C 33.878906 24.714844 35.105469 23.65625 36.359375 22.628906 C 37.613281 21.597656 38.890625 20.601562 40.191406 19.636719 C 41.496094 18.671875 42.820312 17.738281 44.167969 16.835938 C 45.515625 15.9375 46.886719 15.070312 48.277344 14.234375 C 49.667969 13.402344 51.078125 12.601562 52.507812 11.839844 C 53.9375 11.074219 55.382812 10.34375 56.851562 9.652344 C 58.316406 8.957031 59.796875 8.300781 61.296875 7.683594 C 62.792969 7.0625 64.304688 6.476562 65.832031 5.933594 C 67.359375 5.386719 68.898438 4.878906 70.449219 4.40625 C 72 3.9375 73.5625 3.503906 75.136719 3.109375 C 76.707031 2.714844 78.289062 2.359375 79.878906 2.042969 C 81.46875 1.726562 83.066406 1.449219 84.671875 1.214844 C 86.273438 0.976562 87.882812 0.777344 89.496094 0.617188 C 91.109375 0.457031 92.726562 0.339844 94.34375 0.261719 C 95.964844 0.179688 97.585938 0.140625 99.207031 0.140625 Z M 99.207031 0.140625 " clip-rule="nonzero"/></clipPath><linearGradient x1="21.351879" gradientTransform="matrix(0, -1.560332, 1.560332, 0, 0.140757, 368.379057)" y1="-15.462296" x2="214.648926" gradientUnits="userSpaceOnUse" y2="251.461706" id="8a7fcdfdbd"><stop stop-opacity="1" stop-color="rgb(49.612427%, 66.285706%, 95.707703%)" offset="0"/><stop stop-opacity="1" stop-color="rgb(49.57428%, 66.00647%, 95.657349%)" offset="0.00390625"/><stop stop-opacity="1" stop-color="rgb(49.537659%, 65.72876%, 95.608521%)" offset="0.0078125"/><stop stop-opacity="1" stop-color="rgb(49.499512%, 65.449524%, 95.559692%)" offset="0.0117188"/><stop stop-opacity="1" stop-color="rgb(49.461365%, 65.171814%, 95.510864%)" offset="0.015625"/><stop stop-opacity="1" stop-color="rgb(49.423218%, 64.892578%, 95.46051%)" offset="0.0195312"/><stop stop-opacity="1" stop-color="rgb(49.385071%, 64.614868%, 95.411682%)" offset="0.0234375"/><stop stop-opacity="1" stop-color="rgb(49.346924%, 64.335632%, 95.362854%)" offset="0.0273437"/><stop stop-opacity="1" stop-color="rgb(49.310303%, 64.057922%, 95.314026%)" offset="0.03125"/><stop stop-opacity="1" stop-color="rgb(49.272156%, 63.778687%, 95.263672%)" offset="0.0351563"/><stop stop-opacity="1" stop-color="rgb(49.234009%, 63.500977%, 95.214844%)" offset="0.0390625"/><stop stop-opacity="1" stop-color="rgb(49.195862%, 63.221741%, 95.166016%)" offset="0.0429688"/><stop stop-opacity="1" stop-color="rgb(49.157715%, 62.944031%, 95.117188%)" offset="0.046875"/><stop stop-opacity="1" stop-color="rgb(49.119568%, 62.664795%, 95.066833%)" offset="0.0507812"/><stop stop-opacity="1" stop-color="rgb(49.082947%, 62.387085%, 95.018005%)" offset="0.0546875"/><stop stop-opacity="1" stop-color="rgb(49.0448%, 62.107849%, 94.967651%)" offset="0.0585938"/><stop stop-opacity="1" stop-color="rgb(49.006653%, 61.830139%, 94.918823%)" offset="0.0625"/><stop stop-opacity="1" stop-color="rgb(48.968506%, 61.550903%, 94.869995%)" offset="0.0664062"/><stop stop-opacity="1" stop-color="rgb(48.930359%, 61.273193%, 94.821167%)" offset="0.0703125"/><stop stop-opacity="1" stop-color="rgb(48.892212%, 60.993958%, 94.770813%)" offset="0.0742188"/><stop stop-opacity="1" stop-color="rgb(48.855591%, 60.716248%, 94.721985%)" offset="0.078125"/><stop stop-opacity="1" stop-color="rgb(48.817444%, 60.437012%, 94.673157%)" offset="0.0820312"/><stop stop-opacity="1" stop-color="rgb(48.779297%, 60.159302%, 94.624329%)" offset="0.0859375"/><stop stop-opacity="1" stop-color="rgb(48.74115%, 59.880066%, 94.573975%)" offset="0.0898438"/><stop stop-opacity="1" stop-color="rgb(48.703003%, 59.602356%, 94.525146%)" offset="0.09375"/><stop stop-opacity="1" stop-color="rgb(48.664856%, 59.32312%, 94.476318%)" offset="0.0976562"/><stop stop-opacity="1" stop-color="rgb(48.626709%, 59.04541%, 94.42749%)" offset="0.101562"/><stop stop-opacity="1" stop-color="rgb(48.588562%, 58.7677%, 94.377136%)" offset="0.105469"/><stop stop-opacity="1" stop-color="rgb(48.551941%, 58.48999%, 94.328308%)" offset="0.109375"/><stop stop-opacity="1" stop-color="rgb(48.513794%, 58.210754%, 94.277954%)" offset="0.113281"/><stop stop-opacity="1" stop-color="rgb(48.475647%, 57.933044%, 94.229126%)" offset="0.117187"/><stop stop-opacity="1" stop-color="rgb(48.4375%, 57.653809%, 94.180298%)" offset="0.121094"/><stop stop-opacity="1" stop-color="rgb(48.399353%, 57.376099%, 94.13147%)" offset="0.125"/><stop stop-opacity="1" stop-color="rgb(48.361206%, 57.096863%, 94.081116%)" offset="0.128906"/><stop stop-opacity="1" stop-color="rgb(48.324585%, 56.819153%, 94.032288%)" offset="0.132812"/><stop stop-opacity="1" stop-color="rgb(48.286438%, 56.539917%, 93.983459%)" offset="0.136719"/><stop stop-opacity="1" stop-color="rgb(48.248291%, 56.262207%, 93.934631%)" offset="0.140625"/><stop stop-opacity="1" stop-color="rgb(48.210144%, 55.982971%, 93.884277%)" offset="0.144531"/><stop stop-opacity="1" stop-color="rgb(48.171997%, 55.705261%, 93.835449%)" offset="0.148437"/><stop stop-opacity="1" stop-color="rgb(48.13385%, 55.426025%, 93.786621%)" offset="0.152344"/><stop stop-opacity="1" stop-color="rgb(48.097229%, 55.148315%, 93.737793%)" offset="0.15625"/><stop stop-opacity="1" stop-color="rgb(48.059082%, 54.86908%, 93.687439%)" offset="0.160156"/><stop stop-opacity="1" stop-color="rgb(48.020935%, 54.59137%, 93.638611%)" offset="0.164062"/><stop stop-opacity="1" stop-color="rgb(47.982788%, 54.312134%, 93.588257%)" offset="0.167969"/><stop stop-opacity="1" stop-color="rgb(47.944641%, 54.034424%, 93.539429%)" offset="0.171875"/><stop stop-opacity="1" stop-color="rgb(47.906494%, 53.755188%, 93.490601%)" offset="0.175781"/><stop stop-opacity="1" stop-color="rgb(47.869873%, 53.477478%, 93.441772%)" offset="0.179687"/><stop stop-opacity="1" stop-color="rgb(47.831726%, 53.198242%, 93.391418%)" offset="0.183594"/><stop stop-opacity="1" stop-color="rgb(47.793579%, 52.920532%, 93.34259%)" offset="0.1875"/><stop stop-opacity="1" stop-color="rgb(47.755432%, 52.641296%, 93.293762%)" offset="0.191406"/><stop stop-opacity="1" stop-color="rgb(47.717285%, 52.363586%, 93.244934%)" offset="0.195312"/><stop stop-opacity="1" stop-color="rgb(47.679138%, 52.084351%, 93.19458%)" offset="0.199219"/><stop stop-opacity="1" stop-color="rgb(47.640991%, 51.806641%, 93.145752%)" offset="0.203125"/><stop stop-opacity="1" stop-color="rgb(47.602844%, 51.527405%, 93.096924%)" offset="0.207031"/><stop stop-opacity="1" stop-color="rgb(47.566223%, 51.249695%, 93.048096%)" offset="0.210937"/><stop stop-opacity="1" stop-color="rgb(47.528076%, 50.970459%, 92.997742%)" offset="0.214844"/><stop stop-opacity="1" stop-color="rgb(47.489929%, 50.692749%, 92.948914%)" offset="0.21875"/><stop stop-opacity="1" stop-color="rgb(47.451782%, 50.413513%, 92.900085%)" offset="0.222656"/><stop stop-opacity="1" stop-color="rgb(47.413635%, 50.135803%, 92.851257%)" offset="0.226562"/><stop stop-opacity="1" stop-color="rgb(47.375488%, 49.856567%, 92.800903%)" offset="0.230469"/><stop stop-opacity="1" stop-color="rgb(47.338867%, 49.578857%, 92.752075%)" offset="0.234375"/><stop stop-opacity="1" stop-color="rgb(47.30072%, 49.299622%, 92.701721%)" offset="0.238281"/><stop stop-opacity="1" stop-color="rgb(47.262573%, 49.021912%, 92.652893%)" offset="0.242187"/><stop stop-opacity="1" stop-color="rgb(47.224426%, 48.744202%, 92.604065%)" offset="0.246094"/><stop stop-opacity="1" stop-color="rgb(47.186279%, 48.466492%, 92.555237%)" offset="0.25"/><stop stop-opacity="1" stop-color="rgb(47.148132%, 48.187256%, 92.504883%)" offset="0.253906"/><stop stop-opacity="1" stop-color="rgb(47.111511%, 47.909546%, 92.456055%)" offset="0.257812"/><stop stop-opacity="1" stop-color="rgb(47.073364%, 47.63031%, 92.407227%)" offset="0.261719"/><stop stop-opacity="1" stop-color="rgb(47.035217%, 47.3526%, 92.358398%)" offset="0.265625"/><stop stop-opacity="1" stop-color="rgb(46.99707%, 47.073364%, 92.308044%)" offset="0.269531"/><stop stop-opacity="1" stop-color="rgb(46.958923%, 46.795654%, 92.259216%)" offset="0.273438"/><stop stop-opacity="1" stop-color="rgb(46.920776%, 46.516418%, 92.210388%)" offset="0.277344"/><stop stop-opacity="1" stop-color="rgb(46.884155%, 46.238708%, 92.16156%)" offset="0.28125"/><stop stop-opacity="1" stop-color="rgb(46.846008%, 45.959473%, 92.111206%)" offset="0.285156"/><stop stop-opacity="1" stop-color="rgb(46.807861%, 45.681763%, 92.062378%)" offset="0.289062"/><stop stop-opacity="1" stop-color="rgb(46.769714%, 45.402527%, 92.012024%)" offset="0.292969"/><stop stop-opacity="1" stop-color="rgb(46.731567%, 45.124817%, 91.963196%)" offset="0.296875"/><stop stop-opacity="1" stop-color="rgb(46.69342%, 44.845581%, 91.914368%)" offset="0.300781"/><stop stop-opacity="1" stop-color="rgb(46.655273%, 44.567871%, 91.86554%)" offset="0.304687"/><stop stop-opacity="1" stop-color="rgb(46.617126%, 44.288635%, 91.815186%)" offset="0.308594"/><stop stop-opacity="1" stop-color="rgb(46.580505%, 44.010925%, 91.766357%)" offset="0.3125"/><stop stop-opacity="1" stop-color="rgb(46.542358%, 43.731689%, 91.717529%)" offset="0.316406"/><stop stop-opacity="1" stop-color="rgb(46.504211%, 43.453979%, 91.668701%)" offset="0.320312"/><stop stop-opacity="1" stop-color="rgb(46.466064%, 43.174744%, 91.618347%)" offset="0.324219"/><stop stop-opacity="1" stop-color="rgb(46.427917%, 42.897034%, 91.569519%)" offset="0.328125"/><stop stop-opacity="1" stop-color="rgb(46.389771%, 42.617798%, 91.520691%)" offset="0.332031"/><stop stop-opacity="1" stop-color="rgb(46.353149%, 42.340088%, 91.471863%)" offset="0.335938"/><stop stop-opacity="1" stop-color="rgb(46.315002%, 42.060852%, 91.421509%)" offset="0.339844"/><stop stop-opacity="1" stop-color="rgb(46.276855%, 41.783142%, 91.372681%)" offset="0.34375"/><stop stop-opacity="1" stop-color="rgb(46.238708%, 41.503906%, 91.322327%)" offset="0.347656"/><stop stop-opacity="1" stop-color="rgb(46.200562%, 41.226196%, 91.273499%)" offset="0.351562"/><stop stop-opacity="1" stop-color="rgb(46.162415%, 40.94696%, 91.22467%)" offset="0.355469"/><stop stop-opacity="1" stop-color="rgb(46.125793%, 40.66925%, 91.175842%)" offset="0.359375"/><stop stop-opacity="1" stop-color="rgb(46.087646%, 40.390015%, 91.125488%)" offset="0.363281"/><stop stop-opacity="1" stop-color="rgb(46.0495%, 40.112305%, 91.07666%)" offset="0.367188"/><stop stop-opacity="1" stop-color="rgb(46.011353%, 39.833069%, 91.027832%)" offset="0.371094"/><stop stop-opacity="1" stop-color="rgb(45.973206%, 39.555359%, 90.979004%)" offset="0.375"/><stop stop-opacity="1" stop-color="rgb(45.935059%, 39.277649%, 90.92865%)" offset="0.378906"/><stop stop-opacity="1" stop-color="rgb(45.898438%, 38.999939%, 90.879822%)" offset="0.382812"/><stop stop-opacity="1" stop-color="rgb(45.860291%, 38.720703%, 90.830994%)" offset="0.386719"/><stop stop-opacity="1" stop-color="rgb(45.822144%, 38.442993%, 90.782166%)" offset="0.390625"/><stop stop-opacity="1" stop-color="rgb(45.783997%, 38.163757%, 90.731812%)" offset="0.394531"/><stop stop-opacity="1" stop-color="rgb(45.74585%, 37.886047%, 90.682983%)" offset="0.398437"/><stop stop-opacity="1" stop-color="rgb(45.707703%, 37.606812%, 90.632629%)" offset="0.402344"/><stop stop-opacity="1" stop-color="rgb(45.669556%, 37.329102%, 90.583801%)" offset="0.40625"/><stop stop-opacity="1" stop-color="rgb(45.631409%, 37.049866%, 90.534973%)" offset="0.410156"/><stop stop-opacity="1" stop-color="rgb(45.594788%, 36.772156%, 90.486145%)" offset="0.414062"/><stop stop-opacity="1" stop-color="rgb(45.556641%, 36.49292%, 90.435791%)" offset="0.417969"/><stop stop-opacity="1" stop-color="rgb(45.518494%, 36.21521%, 90.386963%)" offset="0.421875"/><stop stop-opacity="1" stop-color="rgb(45.480347%, 35.935974%, 90.338135%)" offset="0.425781"/><stop stop-opacity="1" stop-color="rgb(45.4422%, 35.658264%, 90.289307%)" offset="0.429687"/><stop stop-opacity="1" stop-color="rgb(45.404053%, 35.379028%, 90.238953%)" offset="0.433594"/><stop stop-opacity="1" stop-color="rgb(45.367432%, 35.101318%, 90.190125%)" offset="0.4375"/><stop stop-opacity="1" stop-color="rgb(45.329285%, 34.822083%, 90.141296%)" offset="0.441406"/><stop stop-opacity="1" stop-color="rgb(45.291138%, 34.544373%, 90.092468%)" offset="0.445312"/><stop stop-opacity="1" stop-color="rgb(45.252991%, 34.265137%, 90.042114%)" offset="0.449219"/><stop stop-opacity="1" stop-color="rgb(45.214844%, 33.987427%, 89.993286%)" offset="0.453125"/><stop stop-opacity="1" stop-color="rgb(45.176697%, 33.708191%, 89.942932%)" offset="0.457031"/><stop stop-opacity="1" stop-color="rgb(45.140076%, 33.430481%, 89.894104%)" offset="0.460937"/><stop stop-opacity="1" stop-color="rgb(45.101929%, 33.151245%, 89.845276%)" offset="0.464844"/><stop stop-opacity="1" stop-color="rgb(45.063782%, 32.873535%, 89.796448%)" offset="0.46875"/><stop stop-opacity="1" stop-color="rgb(45.025635%, 32.594299%, 89.746094%)" offset="0.472656"/><stop stop-opacity="1" stop-color="rgb(44.987488%, 32.316589%, 89.697266%)" offset="0.476562"/><stop stop-opacity="1" stop-color="rgb(44.949341%, 32.037354%, 89.648438%)" offset="0.480469"/><stop stop-opacity="1" stop-color="rgb(44.91272%, 31.759644%, 89.599609%)" offset="0.484375"/><stop stop-opacity="1" stop-color="rgb(44.874573%, 31.480408%, 89.549255%)" offset="0.488281"/><stop stop-opacity="1" stop-color="rgb(44.836426%, 31.202698%, 89.500427%)" offset="0.492187"/><stop stop-opacity="1" stop-color="rgb(44.798279%, 30.923462%, 89.451599%)" offset="0.496094"/><stop stop-opacity="1" stop-color="rgb(44.760132%, 30.645752%, 89.402771%)" offset="0.5"/><stop stop-opacity="1" stop-color="rgb(44.721985%, 30.366516%, 89.352417%)" offset="0.503906"/><stop stop-opacity="1" stop-color="rgb(44.683838%, 30.088806%, 89.303589%)" offset="0.507812"/><stop stop-opacity="1" stop-color="rgb(44.645691%, 29.811096%, 89.253235%)" offset="0.511719"/><stop stop-opacity="1" stop-color="rgb(44.60907%, 29.533386%, 89.204407%)" offset="0.515625"/><stop stop-opacity="1" stop-color="rgb(44.570923%, 29.25415%, 89.155579%)" offset="0.519531"/><stop stop-opacity="1" stop-color="rgb(44.532776%, 28.97644%, 89.10675%)" offset="0.523437"/><stop stop-opacity="1" stop-color="rgb(44.494629%, 28.697205%, 89.056396%)" offset="0.527344"/><stop stop-opacity="1" stop-color="rgb(44.456482%, 28.419495%, 89.007568%)" offset="0.53125"/><stop stop-opacity="1" stop-color="rgb(44.418335%, 28.140259%, 88.95874%)" offset="0.535156"/><stop stop-opacity="1" stop-color="rgb(44.381714%, 27.862549%, 88.909912%)" offset="0.539062"/><stop stop-opacity="1" stop-color="rgb(44.343567%, 27.583313%, 88.859558%)" offset="0.542969"/><stop stop-opacity="1" stop-color="rgb(44.30542%, 27.305603%, 88.81073%)" offset="0.546875"/><stop stop-opacity="1" stop-color="rgb(44.267273%, 27.026367%, 88.761902%)" offset="0.550781"/><stop stop-opacity="1" stop-color="rgb(44.229126%, 26.748657%, 88.713074%)" offset="0.554688"/><stop stop-opacity="1" stop-color="rgb(44.190979%, 26.469421%, 88.66272%)" offset="0.558594"/><stop stop-opacity="1" stop-color="rgb(44.154358%, 26.191711%, 88.613892%)" offset="0.5625"/><stop stop-opacity="1" stop-color="rgb(44.116211%, 25.912476%, 88.563538%)" offset="0.566406"/><stop stop-opacity="1" stop-color="rgb(44.078064%, 25.634766%, 88.514709%)" offset="0.570312"/><stop stop-opacity="1" stop-color="rgb(44.039917%, 25.35553%, 88.465881%)" offset="0.574219"/><stop stop-opacity="1" stop-color="rgb(44.00177%, 25.07782%, 88.417053%)" offset="0.578125"/><stop stop-opacity="1" stop-color="rgb(43.963623%, 24.798584%, 88.366699%)" offset="0.582031"/><stop stop-opacity="1" stop-color="rgb(43.927002%, 24.520874%, 88.317871%)" offset="0.585938"/><stop stop-opacity="1" stop-color="rgb(43.888855%, 24.241638%, 88.269043%)" offset="0.589844"/><stop stop-opacity="1" stop-color="rgb(43.850708%, 23.963928%, 88.220215%)" offset="0.59375"/><stop stop-opacity="1" stop-color="rgb(43.812561%, 23.684692%, 88.169861%)" offset="0.597656"/><stop stop-opacity="1" stop-color="rgb(43.774414%, 23.406982%, 88.121033%)" offset="0.601562"/><stop stop-opacity="1" stop-color="rgb(43.736267%, 23.127747%, 88.072205%)" offset="0.605469"/><stop stop-opacity="1" stop-color="rgb(43.69812%, 22.850037%, 88.023376%)" offset="0.609375"/><stop stop-opacity="1" stop-color="rgb(43.659973%, 22.570801%, 87.973022%)" offset="0.613281"/><stop stop-opacity="1" stop-color="rgb(43.623352%, 22.293091%, 87.924194%)" offset="0.617187"/><stop stop-opacity="1" stop-color="rgb(43.585205%, 22.013855%, 87.87384%)" offset="0.621094"/><stop stop-opacity="1" stop-color="rgb(43.547058%, 21.736145%, 87.825012%)" offset="0.625"/><stop stop-opacity="1" stop-color="rgb(43.508911%, 21.456909%, 87.776184%)" offset="0.628906"/><stop stop-opacity="1" stop-color="rgb(43.470764%, 21.179199%, 87.727356%)" offset="0.632812"/><stop stop-opacity="1" stop-color="rgb(43.432617%, 20.899963%, 87.677002%)" offset="0.636719"/><stop stop-opacity="1" stop-color="rgb(43.395996%, 20.622253%, 87.628174%)" offset="0.640625"/><stop stop-opacity="1" stop-color="rgb(43.357849%, 20.343018%, 87.579346%)" offset="0.644531"/><stop stop-opacity="1" stop-color="rgb(43.319702%, 20.065308%, 87.530518%)" offset="0.648438"/><stop stop-opacity="1" stop-color="rgb(43.281555%, 19.787598%, 87.480164%)" offset="0.652344"/><stop stop-opacity="1" stop-color="rgb(43.243408%, 19.509888%, 87.431335%)" offset="0.65625"/><stop stop-opacity="1" stop-color="rgb(43.205261%, 19.230652%, 87.382507%)" offset="0.660156"/><stop stop-opacity="1" stop-color="rgb(43.16864%, 18.952942%, 87.333679%)" offset="0.664062"/><stop stop-opacity="1" stop-color="rgb(43.130493%, 18.673706%, 87.283325%)" offset="0.667969"/><stop stop-opacity="1" stop-color="rgb(43.092346%, 18.395996%, 87.234497%)" offset="0.671875"/><stop stop-opacity="1" stop-color="rgb(43.054199%, 18.11676%, 87.185669%)" offset="0.675781"/><stop stop-opacity="1" stop-color="rgb(43.016052%, 17.83905%, 87.136841%)" offset="0.679688"/><stop stop-opacity="1" stop-color="rgb(42.977905%, 17.559814%, 87.086487%)" offset="0.683594"/><stop stop-opacity="1" stop-color="rgb(42.941284%, 17.282104%, 87.037659%)" offset="0.6875"/><stop stop-opacity="1" stop-color="rgb(42.903137%, 17.002869%, 86.987305%)" offset="0.691406"/><stop stop-opacity="1" stop-color="rgb(42.86499%, 16.725159%, 86.938477%)" offset="0.695312"/><stop stop-opacity="1" stop-color="rgb(42.826843%, 16.445923%, 86.889648%)" offset="0.699219"/><stop stop-opacity="1" stop-color="rgb(42.788696%, 16.168213%, 86.84082%)" offset="0.703125"/><stop stop-opacity="1" stop-color="rgb(42.750549%, 15.888977%, 86.790466%)" offset="0.707031"/><stop stop-opacity="1" stop-color="rgb(42.712402%, 15.611267%, 86.741638%)" offset="0.710937"/><stop stop-opacity="1" stop-color="rgb(42.674255%, 15.332031%, 86.69281%)" offset="0.714844"/><stop stop-opacity="1" stop-color="rgb(42.637634%, 15.054321%, 86.643982%)" offset="0.71875"/><stop stop-opacity="1" stop-color="rgb(42.599487%, 14.775085%, 86.593628%)" offset="0.722656"/><stop stop-opacity="1" stop-color="rgb(42.56134%, 14.497375%, 86.5448%)" offset="0.726562"/><stop stop-opacity="1" stop-color="rgb(42.523193%, 14.21814%, 86.495972%)" offset="0.730469"/><stop stop-opacity="1" stop-color="rgb(42.485046%, 13.94043%, 86.447144%)" offset="0.734375"/><stop stop-opacity="1" stop-color="rgb(42.446899%, 13.661194%, 86.39679%)" offset="0.738281"/><stop stop-opacity="1" stop-color="rgb(42.410278%, 13.383484%, 86.347961%)" offset="0.742188"/><stop stop-opacity="1" stop-color="rgb(42.379761%, 13.160706%, 86.308289%)" offset="0.746094"/><stop stop-opacity="1" stop-color="rgb(42.349243%, 12.939453%, 86.268616%)" offset="0.75"/><stop stop-opacity="1" stop-color="rgb(42.349243%, 12.939453%, 86.268616%)" offset="1"/></linearGradient><clipPath id="794590d42b"><path d="M 64.039062 75.148438 L 125 75.148438 L 125 294.671875 L 64.039062 294.671875 Z M 64.039062 75.148438 " clip-rule="nonzero"/></clipPath><clipPath id="62f4bd4422"><path d="M 124 75.148438 L 185 75.148438 L 185 294.671875 L 124 294.671875 Z M 124 75.148438 " clip-rule="nonzero"/></clipPath><clipPath id="3d891599e3"><path d="M 184 75.148438 L 245 75.148438 L 245 294.671875 L 184 294.671875 Z M 184 75.148438 " clip-rule="nonzero"/></clipPath><clipPath id="8ef866ff10"><path d="M 244 75.148438 L 304.8125 75.148438 L 304.8125 294.671875 L 244 294.671875 Z M 244 75.148438 " clip-rule="nonzero"/></clipPath><clipPath id="2fa69bf78e"><rect x="0" width="371" y="0" height="371"/></clipPath></defs><g transform="matrix(1, 0, 0, 1, 3, 3)"><g clip-path="url(#2fa69bf78e)"><g clip-path="url(#f428043470)"><g clip-path="url(#ff50d332cc)"><path fill="url(#8a7fcdfdbd)" d="M 0.140625 368.378906 L 368.378906 368.378906 L 368.378906 0.140625 L 0.140625 0.140625 Z M 0.140625 368.378906 " fill-rule="nonzero"/></g></g><g clip-path="url(#794590d42b)"><path fill="#ffffff" d="M 64.484375 294.671875 L 124.390625 221.429688 L 124.390625 75.148438 L 64.214844 148.730469 Z M 64.484375 294.671875 " fill-opacity="1" fill-rule="nonzero"/></g><g clip-path="url(#62f4bd4422)"><path fill="#c0bff2" d="M 124.390625 75.148438 L 184.417969 148.390625 L 184.417969 294.671875 L 124.390625 221.089844 Z M 124.390625 75.148438 " fill-opacity="1" fill-rule="nonzero"/></g><g clip-path="url(#3d891599e3)"><path fill="#dbd5f4" d="M 184.691406 294.671875 L 244.597656 221.429688 L 244.597656 75.148438 L 184.417969 148.730469 Z M 184.691406 294.671875 " fill-opacity="1" fill-rule="nonzero"/></g><g clip-path="url(#8ef866ff10)"><path fill="#a287ec" d="M 244.597656 75.148438 L 304.640625 148.390625 L 304.640625 294.671875 L 244.597656 221.089844 Z M 244.597656 75.148438 " fill-opacity="1" fill-rule="nonzero"/></g></g></g></svg>